# xmcd CD database file generated by Grip 2.95
# 
# Track frame offsets:
#       150
#       12084
#       23007
#       37452
#       49764
#       62659
#       76435
#       87898
#       101237
#       114532
#       129393
#       143351
#       156376
#       169964
#       181903
#       194511
#       217287
#       232096
#       246046
#       259708
#       280226
# 
# Disc length: 3915 seconds
# 
# Revision: 3
# Processed by: cddbd v1.4b42PL0 Copyright (c) Steve Scherf et al.
# Submitted via: Grip 2.95
# 
DISCID=310f4915
DTITLE=Leadbelly - Easy Rider 
DYEAR=1900
DGENRE=
TTITLE0=Fannin Street
TTITLE1=I´ve A Pretty Flover 
TTITLE2=Easy Rider
TTITLE3=Bull Cow
TTITLE4=DeKalb Blues
TTITLE5=New York City
TTITLE6=Mother´s Blues
TTITLE7=Tell Me Baby
TTITLE8=Sweet Marry Blues
TTITLE9=Bourgeois Blues
TTITLE10=My Frind Blind Lemon
TTITLE11=Good Morning Blues
TTITLE12=Gallis Pole
TTITLE13=Outskirts of Town
TTITLE14=Grasshopper In My Pillow
TTITLE15=Scottsboro Blues
TTITLE16=Sail on Little Girl, Sail on
TTITLE17=Don´t You Love Your Daddy No More 
TTITLE18=Where Did You Sleep Last Night
TTITLE19=How Long 
TTITLE20=Looky looky Yonder
EXTD=
EXTT0=
EXTT1=
EXTT2=
EXTT3=
EXTT4=
EXTT5=
EXTT6=
EXTT7=
EXTT8=
EXTT9=
EXTT10=
EXTT11=
EXTT12=
EXTT13=
EXTT14=
EXTT15=
EXTT16=
EXTT17=
EXTT18=
EXTT19=
EXTT20=
PLAYORDER=
